<svg id="Layer_1" enable-background="new 0 0 512 512" height="512" viewBox="0 0 512 512" width="512" xmlns="http://www.w3.org/2000/svg"><path d="m421 279.881h-53v43.119h119.593c15.459-18.357 24.407-41.896 24.407-67 0-37.184-19.608-70.951-50.974-89.497 3.684-14.831 2.284-30.568-4.236-44.847-6.972-15.266-19.055-27.199-34.021-33.934-1.521-21.881-10.502-42.31-25.884-58.443-18.002-18.881-42.288-29.279-68.385-29.279-20.75 0-40.473 6.846-56.5 18.793v99.207h47v-21c0-8.284 6.716-15 15-15s15 6.716 15 15v21h3c8.284 0 15 6.716 15 15s-6.716 15-15 15h-80c-16.542 0-30-13.458-30-30v-97.675c-16.371-12.893-36.878-20.325-58.5-20.325-26.097 0-50.383 10.398-68.385 29.28-15.382 16.133-24.363 36.561-25.884 58.443-14.967 6.735-27.05 18.668-34.021 33.934-5.158 11.295-7.098 23.501-5.866 35.45h97.657v-40.107c0-8.284 6.716-15 15-15s15 6.716 15 15v40.106h8.999c16.542 0 30 13.458 30 30v16h14.617c8.284 0 15 6.716 15 15s-6.716 15-15 15h-14.617v27c0 8.284-6.716 15-15 15s-15-6.716-15-15v-73h-56.001v45c0 8.284-6.716 15-15 15s-15-6.716-15-15v-45s-73.249-.049-73.849-.122c-16.528 18.633-26.15 42.983-26.15 69.016 0 37.184 19.608 70.951 50.974 89.497-3.684 14.831-2.284 30.568 4.236 44.847 1.395 3.055 3.004 5.97 4.791 8.743h95.999v-67.087h-26c-8.284 0-15-6.716-15-15s6.716-15 15-15h26c16.542 0 30 13.458 30 30v18.544h13c8.284 0 15 6.716 15 15s-6.716 15-15 15h-13v18.543c0 16.542-13.458 30-30 30h-66.299c2.422 20.056 11.166 38.689 25.414 53.633 18.002 18.882 42.288 29.28 68.385 29.28 21.182 0 41.298-7.129 57.5-19.542v-77.458c0-16.542 13.458-30 30-30h27c8.284 0 15 6.716 15 15s-6.716 15-15 15h-27v77.458c16.202 12.413 36.318 19.542 57.5 19.542 26.097 0 50.383-10.398 68.385-29.28 15.382-16.133 24.363-36.562 25.884-58.443 14.967-6.735 27.05-18.668 34.021-33.934 5.431-11.892 7.296-24.795 5.644-37.344h-191.438c-16.542 0-30-13.458-30-30v-26.999c0-8.284 6.716-15 15-15s15 6.716 15 15v27h67.004v-99.118h-30c-8.284 0-15-6.716-15-15s6.716-15 15-15h30c16.542 0 30 13.458 30 30v26h37.999v-28.882c0-8.284 6.716-15 15-15s15 6.716 15 15c0 0 .001 42.695.001 43.881 0 8.285-6.716 15-15 15z"/></svg>